<svg id="svg" version="1.1" xmlns="http://www.w3.org/2000/svg" xmlns:xlink="http://www.w3.org/1999/xlink" width="400" height="400" viewBox="0, 0, 400,400"><g id="svgg"><path id="path0" d="M251.600 24.800 C 251.093 25.240,250.435 25.600,250.138 25.600 C 249.490 25.600,246.800 28.370,246.800 29.038 C 246.800 29.297,246.531 30.024,246.202 30.654 C 245.424 32.146,245.445 32.987,246.278 33.821 C 246.711 34.253,246.922 35.014,246.861 35.916 C 246.809 36.695,246.909 37.437,247.083 37.566 C 247.906 38.174,248.795 40.873,249.037 43.500 C 249.183 45.095,249.415 46.400,249.552 46.400 C 250.128 46.401,249.571 57.078,248.852 59.800 C 247.379 65.376,246.615 67.600,246.172 67.600 C 245.896 67.600,245.549 68.320,245.400 69.200 C 245.234 70.184,244.912 70.800,244.565 70.800 C 243.889 70.800,243.801 72.267,244.463 72.488 C 245.130 72.710,244.524 74.800,243.792 74.800 C 243.467 74.800,243.200 75.160,243.200 75.600 C 243.200 76.040,242.840 76.760,242.400 77.200 C 241.960 77.640,241.600 78.180,241.600 78.400 C 241.600 78.620,241.420 78.800,241.200 78.800 C 240.980 78.800,240.800 79.070,240.800 79.400 C 240.800 79.730,240.530 80.000,240.200 80.000 C 239.866 80.000,239.600 80.356,239.600 80.804 C 239.600 81.246,239.240 81.916,238.800 82.293 C 238.360 82.670,238.000 83.196,238.000 83.462 C 238.000 83.728,237.630 84.064,237.177 84.207 C 236.724 84.351,236.189 84.903,235.987 85.434 C 235.785 85.965,235.345 86.400,235.010 86.400 C 234.674 86.400,234.400 86.572,234.400 86.782 C 234.400 87.376,232.431 89.200,231.789 89.200 C 231.474 89.200,231.111 89.615,230.984 90.121 C 230.852 90.646,230.262 91.228,229.612 91.473 C 228.975 91.713,228.164 92.501,227.779 93.252 C 227.399 93.993,226.900 94.721,226.670 94.870 C 226.390 95.050,226.429 95.353,226.789 95.786 C 227.154 96.226,227.195 96.565,226.919 96.841 C 226.642 97.118,226.720 97.658,227.162 98.524 C 228.482 101.111,229.070 101.659,230.770 101.887 C 231.677 102.008,232.513 102.260,232.628 102.446 C 232.743 102.632,233.194 102.562,233.631 102.292 C 234.228 101.922,234.496 101.915,234.713 102.264 C 235.040 102.788,236.800 101.591,236.800 100.844 C 236.800 100.608,237.250 100.302,237.800 100.164 C 238.350 100.026,238.800 99.781,238.800 99.619 C 238.800 99.036,240.619 97.284,241.500 97.018 C 241.995 96.868,242.400 96.483,242.400 96.160 C 242.400 95.838,242.677 95.469,243.015 95.339 C 243.353 95.209,243.902 94.577,244.234 93.934 C 244.566 93.291,245.280 92.564,245.819 92.318 C 246.359 92.073,246.800 91.641,246.800 91.358 C 246.800 91.076,247.115 90.610,247.500 90.323 C 247.885 90.035,248.470 89.265,248.800 88.612 C 249.130 87.959,249.670 87.134,250.000 86.778 C 250.330 86.423,250.870 85.722,251.200 85.221 C 251.530 84.720,252.295 83.675,252.900 82.900 C 253.505 82.124,254.000 81.348,254.000 81.174 C 254.000 81.000,254.227 80.619,254.505 80.329 C 254.783 80.038,255.327 79.305,255.714 78.700 C 256.102 78.095,256.774 77.600,257.209 77.600 C 257.645 77.600,258.000 77.331,258.000 77.000 C 258.000 76.670,258.180 76.400,258.400 76.400 C 258.620 76.400,258.800 76.122,258.800 75.783 C 258.800 75.444,259.137 74.804,259.550 74.362 C 259.962 73.919,260.527 72.488,260.804 71.183 C 261.081 69.877,261.555 68.603,261.858 68.352 C 262.811 67.561,264.000 64.368,264.000 62.599 C 264.000 61.665,264.271 60.133,264.602 59.194 C 264.933 58.256,265.212 57.018,265.221 56.444 C 265.231 55.870,265.290 53.960,265.352 52.200 C 265.415 50.440,265.307 48.791,265.113 48.536 C 264.911 48.269,264.911 47.979,265.113 47.854 C 265.638 47.529,265.386 43.962,264.812 43.607 C 264.517 43.425,264.422 42.962,264.578 42.470 C 264.729 41.994,264.568 41.111,264.200 40.400 C 263.847 39.718,263.664 38.828,263.793 38.422 C 263.930 37.991,263.740 37.397,263.336 36.993 C 262.909 36.566,262.663 35.745,262.692 34.851 C 262.719 34.053,262.461 32.966,262.118 32.435 C 261.776 31.904,260.812 30.194,259.976 28.635 C 259.140 27.076,258.268 25.843,258.040 25.896 C 257.811 25.949,257.425 25.620,257.181 25.165 C 256.938 24.710,256.494 24.432,256.195 24.547 C 255.896 24.661,255.574 24.540,255.478 24.278 C 255.344 23.910,255.113 23.913,254.471 24.292 C 253.946 24.602,253.547 24.639,253.395 24.392 C 253.038 23.814,252.629 23.907,251.600 24.800 M141.582 69.125 C 141.262 69.224,140.681 69.583,140.291 69.923 C 139.766 70.380,139.464 70.424,139.132 70.092 C 138.660 69.620,135.720 70.832,135.100 71.754 C 134.888 72.068,134.693 72.035,134.439 71.639 C 134.019 70.987,127.200 74.109,127.200 74.953 C 127.200 75.553,125.824 76.735,124.571 77.211 C 124.037 77.414,123.599 77.810,123.597 78.090 C 123.595 78.371,122.875 79.010,121.997 79.512 C 120.983 80.091,120.400 80.712,120.400 81.212 C 120.400 81.646,120.130 82.000,119.800 82.000 C 119.470 82.000,119.200 82.268,119.200 82.597 C 119.200 82.925,118.840 83.418,118.400 83.693 C 117.960 83.968,117.600 84.509,117.600 84.896 C 117.600 85.283,117.420 85.600,117.200 85.600 C 116.980 85.600,116.800 85.870,116.800 86.200 C 116.800 86.530,116.643 86.800,116.451 86.800 C 116.259 86.800,115.980 87.563,115.831 88.496 C 115.682 89.428,115.202 90.572,114.764 91.038 C 113.721 92.148,113.337 94.475,114.072 95.230 C 114.492 95.661,114.591 96.773,114.479 99.800 C 114.398 102.000,114.347 104.070,114.364 104.400 C 114.502 106.923,114.842 108.581,115.282 108.865 C 115.699 109.135,115.689 109.272,115.228 109.568 C 114.643 109.945,115.720 112.701,117.149 114.486 C 117.458 114.871,117.609 115.639,117.495 116.235 C 117.342 117.036,117.474 117.347,118.027 117.491 C 120.014 118.011,120.183 122.212,118.300 124.290 C 117.915 124.715,117.600 125.274,117.600 125.531 C 117.600 125.789,117.330 126.000,117.000 126.000 C 116.670 126.000,116.400 126.268,116.400 126.595 C 116.400 127.143,115.770 128.078,114.500 129.416 C 114.225 129.706,114.000 130.226,114.000 130.571 C 114.000 130.917,113.730 131.200,113.400 131.200 C 113.070 131.200,112.800 131.536,112.800 131.946 C 112.800 132.356,112.440 133.150,112.000 133.709 C 111.560 134.269,111.200 134.851,111.200 135.003 C 111.200 135.340,110.134 137.812,109.364 139.262 C 109.054 139.846,108.800 140.611,108.800 140.962 C 108.800 141.313,108.654 141.600,108.475 141.600 C 108.296 141.600,107.902 142.230,107.600 143.000 C 107.298 143.770,106.937 144.400,106.799 144.400 C 106.660 144.400,106.314 145.570,106.030 147.000 C 105.746 148.430,105.386 149.600,105.230 149.600 C 105.074 149.600,104.714 150.770,104.430 152.200 C 104.146 153.630,103.776 154.800,103.609 154.800 C 103.245 154.800,102.779 157.389,102.611 160.349 C 102.544 161.531,102.266 162.636,101.993 162.804 C 101.720 162.973,101.442 164.076,101.375 165.255 C 100.990 172.058,100.722 174.615,100.382 174.733 C 99.821 174.929,99.916 176.699,100.500 176.936 C 100.890 177.094,100.881 177.222,100.462 177.517 C 99.977 177.857,99.812 179.567,99.957 182.749 C 99.994 183.566,100.088 183.625,100.630 183.175 C 101.151 182.742,101.320 182.747,101.600 183.200 C 101.887 183.665,102.040 183.665,102.600 183.200 C 103.376 182.556,106.675 182.274,107.014 182.822 C 107.142 183.030,107.057 183.200,106.824 183.200 C 106.591 183.200,106.400 183.550,106.400 183.978 C 106.400 184.666,106.622 184.736,108.300 184.576 C 109.345 184.476,111.297 184.351,112.639 184.297 C 113.980 184.244,115.343 183.979,115.668 183.710 C 116.109 183.344,116.375 183.335,116.713 183.673 C 117.051 184.011,117.330 183.990,117.809 183.592 C 118.163 183.299,119.566 183.005,120.926 182.940 C 125.229 182.733,129.152 182.050,130.279 181.312 C 130.768 180.991,131.518 180.847,131.962 180.988 C 132.421 181.134,133.175 180.973,133.725 180.612 C 134.254 180.265,134.966 180.089,135.308 180.220 C 135.649 180.351,136.473 180.176,137.139 179.832 C 137.804 179.487,138.629 179.313,138.971 179.444 C 139.313 179.576,140.245 179.299,141.041 178.829 C 142.145 178.177,142.617 178.082,143.033 178.427 C 143.447 178.771,143.731 178.726,144.217 178.240 C 144.569 177.888,145.105 177.600,145.409 177.600 C 145.712 177.600,146.144 177.285,146.368 176.900 C 146.756 176.233,146.776 176.233,146.788 176.900 C 146.803 177.798,147.074 177.781,148.969 176.766 C 149.825 176.307,151.237 175.881,152.106 175.819 C 152.976 175.757,153.806 175.513,153.952 175.278 C 154.313 174.694,156.228 174.000,157.479 174.000 C 158.044 174.000,159.134 173.612,159.902 173.137 C 160.684 172.654,161.886 172.296,162.633 172.324 C 163.368 172.352,164.209 172.134,164.503 171.840 C 164.797 171.546,165.479 171.171,166.019 171.005 C 166.558 170.840,167.270 170.502,167.600 170.253 C 169.005 169.193,170.069 168.802,170.947 169.023 C 171.495 169.160,172.117 169.031,172.442 168.712 C 172.749 168.412,173.630 167.914,174.400 167.606 C 175.170 167.298,175.890 166.945,176.000 166.823 C 176.110 166.700,176.830 166.286,177.600 165.902 C 178.370 165.519,179.270 165.024,179.600 164.802 C 179.930 164.581,180.650 164.218,181.200 163.997 C 181.750 163.775,183.640 162.794,185.400 161.815 C 187.160 160.837,189.950 159.369,191.600 158.552 C 193.250 157.735,194.690 156.948,194.800 156.802 C 194.910 156.655,195.585 156.281,196.300 155.970 C 197.015 155.659,197.600 155.297,197.600 155.166 C 197.600 155.035,198.317 154.692,199.193 154.402 C 200.069 154.113,200.890 153.546,201.019 153.141 C 201.240 152.444,206.282 149.200,207.143 149.200 C 207.365 149.200,207.647 148.881,207.771 148.491 C 208.005 147.753,211.018 145.600,211.816 145.600 C 212.067 145.600,212.464 145.179,212.698 144.663 C 212.933 144.148,213.794 143.409,214.611 143.022 C 215.428 142.634,216.184 141.981,216.292 141.572 C 216.399 141.162,216.827 140.718,217.243 140.586 C 217.659 140.454,218.000 140.178,218.000 139.973 C 218.000 139.768,218.249 139.600,218.553 139.600 C 218.858 139.600,219.198 139.251,219.310 138.824 C 219.421 138.397,220.138 137.786,220.902 137.467 C 221.819 137.083,222.381 136.532,222.553 135.843 C 222.697 135.269,223.086 134.800,223.418 134.800 C 223.749 134.800,224.191 134.350,224.400 133.800 C 224.609 133.250,225.060 132.800,225.403 132.800 C 225.745 132.800,226.145 132.488,226.291 132.107 C 226.437 131.726,227.512 130.497,228.678 129.376 C 229.845 128.255,230.800 127.126,230.800 126.869 C 230.800 126.611,230.984 126.400,231.209 126.400 C 231.433 126.400,231.821 125.953,232.069 125.408 C 232.318 124.862,232.809 124.315,233.161 124.193 C 233.809 123.968,235.600 121.456,235.600 120.772 C 235.600 120.568,235.780 120.400,236.000 120.400 C 236.220 120.400,236.400 120.130,236.400 119.800 C 236.400 119.470,236.589 119.200,236.819 119.200 C 237.050 119.200,237.472 118.646,237.757 117.968 C 238.041 117.291,238.708 116.520,239.237 116.255 C 240.020 115.863,240.200 115.466,240.200 114.129 C 240.200 113.074,240.473 112.183,240.962 111.642 C 241.670 110.860,241.674 110.800,241.020 110.800 C 240.632 110.800,239.639 110.265,238.814 109.611 C 237.988 108.957,237.197 108.537,237.056 108.677 C 236.915 108.818,236.800 108.723,236.800 108.467 C 236.800 108.210,236.442 108.000,236.003 108.000 C 235.565 108.000,234.982 107.640,234.707 107.200 C 234.432 106.760,233.891 106.400,233.504 106.400 C 233.117 106.400,232.800 106.220,232.800 106.000 C 232.800 105.780,232.530 105.600,232.200 105.600 C 231.870 105.600,231.600 105.420,231.600 105.200 C 231.600 104.980,231.240 104.800,230.800 104.800 C 230.360 104.800,230.000 104.620,230.000 104.400 C 230.000 104.180,229.640 104.000,229.200 104.000 C 228.760 104.000,228.400 103.820,228.400 103.600 C 228.400 103.380,228.040 103.200,227.600 103.200 C 227.160 103.200,226.800 103.020,226.800 102.800 C 226.800 102.580,226.440 102.400,226.000 102.400 C 225.560 102.400,225.200 102.228,225.200 102.018 C 225.200 101.808,224.587 101.521,223.837 101.381 C 222.939 101.212,222.402 100.851,222.264 100.322 C 222.148 99.881,221.888 99.622,221.684 99.748 C 221.124 100.094,216.800 98.682,216.800 98.152 C 216.800 97.897,216.125 97.562,215.301 97.408 C 214.476 97.253,213.669 96.918,213.507 96.663 C 213.299 96.336,213.210 96.361,213.206 96.749 C 213.202 97.122,213.040 97.177,212.700 96.921 C 212.425 96.714,211.390 96.294,210.400 95.989 C 209.410 95.683,208.468 95.246,208.306 95.017 C 208.121 94.754,208.010 94.803,208.006 95.149 C 208.002 95.522,207.840 95.577,207.500 95.321 C 206.596 94.640,203.680 93.888,201.823 93.857 C 200.820 93.840,200.000 93.706,200.000 93.558 C 200.000 93.140,195.547 92.362,193.100 92.353 C 192.715 92.351,192.400 92.181,192.400 91.975 C 192.400 91.420,191.304 91.520,191.033 92.100 C 190.847 92.500,190.753 92.500,190.567 92.100 C 190.438 91.825,190.093 91.600,189.800 91.600 C 189.507 91.600,189.191 91.825,189.099 92.100 C 188.969 92.488,188.682 92.467,187.822 92.009 C 186.511 91.311,176.701 91.296,176.469 91.992 C 176.162 92.914,175.622 92.198,173.584 88.168 C 172.406 85.840,170.759 83.230,169.922 82.367 C 169.085 81.505,168.400 80.547,168.400 80.239 C 168.400 79.930,167.860 79.490,167.200 79.260 C 166.540 79.030,166.000 78.652,166.000 78.421 C 166.000 78.189,165.736 78.000,165.414 78.000 C 165.092 78.000,164.635 77.640,164.400 77.200 C 164.165 76.760,163.618 76.400,163.186 76.400 C 162.754 76.400,162.400 76.220,162.400 76.000 C 162.400 75.780,162.152 75.600,161.849 75.600 C 161.546 75.600,161.034 75.204,160.713 74.719 C 160.391 74.235,159.694 73.819,159.164 73.794 C 157.147 73.701,154.906 72.000,156.800 72.000 C 158.765 72.000,156.686 70.868,152.800 69.823 C 152.470 69.734,152.200 69.628,152.200 69.587 C 152.200 69.311,142.368 68.882,141.582 69.125 M246.200 116.000 C 246.064 116.220,245.526 116.400,245.003 116.400 C 244.405 116.400,243.960 116.696,243.800 117.200 C 243.660 117.640,243.372 118.000,243.160 118.000 C 242.948 118.000,242.639 118.315,242.474 118.700 C 241.784 120.309,240.565 121.995,240.090 121.997 C 239.810 121.999,239.409 122.450,239.200 123.000 C 238.991 123.550,238.664 124.000,238.474 124.000 C 238.284 124.000,237.923 124.450,237.673 125.000 C 237.422 125.550,236.955 126.000,236.636 126.000 C 236.316 126.000,235.945 126.344,235.811 126.764 C 235.678 127.185,235.126 127.819,234.584 128.173 C 234.043 128.528,233.600 129.160,233.600 129.577 C 233.600 130.099,233.217 130.421,232.376 130.605 C 231.597 130.776,231.019 131.224,230.786 131.837 C 230.585 132.367,230.190 132.801,229.910 132.803 C 229.629 132.804,229.084 133.360,228.698 134.038 C 228.312 134.716,227.457 135.474,226.798 135.723 C 226.085 135.992,225.600 136.464,225.600 136.888 C 225.600 137.279,225.373 137.600,225.096 137.600 C 224.493 137.600,222.400 139.472,222.400 140.011 C 222.400 140.219,221.770 140.652,221.000 140.974 C 220.230 141.296,219.600 141.761,219.600 142.008 C 219.600 142.650,218.786 143.358,217.393 143.927 C 216.730 144.198,215.960 144.930,215.684 145.555 C 215.359 146.290,214.727 146.818,213.891 147.055 C 213.181 147.256,212.433 147.797,212.228 148.258 C 212.023 148.718,210.808 149.671,209.528 150.374 C 208.248 151.078,207.200 151.887,207.200 152.172 C 207.200 152.457,205.829 153.386,204.153 154.237 C 202.477 155.087,200.985 156.112,200.836 156.513 C 200.558 157.265,200.386 157.381,196.572 159.387 C 195.330 160.040,194.167 160.961,193.988 161.433 C 193.808 161.904,193.288 162.388,192.831 162.508 C 191.798 162.778,191.634 166.882,192.604 168.165 C 192.922 168.585,193.085 169.320,192.965 169.797 C 192.836 170.310,193.103 171.268,193.618 172.142 C 194.140 173.025,194.414 174.016,194.300 174.609 C 194.196 175.153,194.345 175.914,194.632 176.300 C 195.128 176.967,251.086 121.904,251.804 120.042 C 252.086 119.310,250.881 118.000,249.925 118.000 C 249.513 118.000,249.072 117.731,248.946 117.402 C 248.819 117.074,248.561 116.901,248.371 117.018 C 248.181 117.135,247.797 116.864,247.517 116.416 C 246.954 115.515,246.574 115.395,246.200 116.000 M315.817 129.200 C 315.254 129.400,315.350 129.655,317.739 134.297 C 317.992 134.790,318.335 135.195,318.500 135.197 C 318.665 135.199,318.800 135.394,318.800 135.631 C 318.800 136.171,321.631 142.128,322.016 142.400 C 322.172 142.510,322.426 143.185,322.582 143.900 C 322.857 145.169,323.158 145.370,325.424 145.794 C 325.851 145.873,326.290 145.974,326.400 146.017 C 326.510 146.060,326.735 146.073,326.900 146.047 C 327.065 146.021,327.200 146.192,327.200 146.427 C 327.200 146.672,327.541 146.746,328.000 146.600 C 328.440 146.460,328.800 146.518,328.800 146.729 C 328.800 146.939,329.425 147.228,330.189 147.372 C 330.953 147.515,331.718 147.869,331.889 148.160 C 332.060 148.450,332.875 148.906,333.700 149.174 C 334.525 149.443,335.200 149.828,335.200 150.031 C 335.200 150.234,335.476 150.400,335.813 150.400 C 336.149 150.400,336.533 150.680,336.664 151.023 C 336.796 151.366,337.141 151.555,337.431 151.443 C 337.723 151.332,338.070 151.590,338.206 152.020 C 338.343 152.449,338.806 152.800,339.237 152.800 C 339.704 152.800,340.173 153.203,340.400 153.800 C 340.622 154.384,341.097 154.800,341.543 154.800 C 341.971 154.800,342.399 155.153,342.516 155.602 C 342.656 156.136,342.938 156.322,343.363 156.159 C 343.821 155.983,344.000 156.151,344.000 156.757 C 344.000 157.616,344.216 157.685,347.000 157.711 C 348.683 157.726,350.800 157.205,350.800 156.776 C 350.800 156.578,351.227 156.308,351.749 156.177 C 352.271 156.046,352.931 155.503,353.216 154.970 C 353.502 154.436,353.885 154.000,354.068 154.000 C 354.250 154.000,354.400 153.751,354.400 153.446 C 354.400 153.141,354.669 152.376,354.998 151.746 C 355.693 150.411,355.779 148.958,355.183 148.590 C 354.954 148.448,354.484 147.627,354.140 146.766 C 353.795 145.905,353.367 145.200,353.188 145.200 C 353.010 145.200,352.740 144.638,352.589 143.951 C 352.430 143.227,352.005 142.622,351.576 142.510 C 351.170 142.403,350.555 141.885,350.209 141.358 C 349.864 140.831,349.226 140.400,348.791 140.400 C 348.355 140.400,348.000 140.131,348.000 139.800 C 348.000 139.467,347.644 139.200,347.200 139.200 C 346.652 139.200,346.400 138.933,346.400 138.353 C 346.400 137.713,346.211 137.556,345.626 137.709 C 345.178 137.826,344.762 137.677,344.638 137.356 C 344.521 137.050,344.059 136.800,343.613 136.800 C 343.058 136.800,342.800 136.538,342.800 135.973 C 342.800 135.312,342.630 135.200,341.950 135.416 C 341.418 135.585,341.194 135.534,341.350 135.280 C 341.503 135.034,341.277 134.959,340.777 135.090 C 340.171 135.249,339.894 135.080,339.730 134.453 C 339.607 133.984,339.213 133.573,338.853 133.539 C 337.330 133.397,335.998 132.877,335.400 132.190 C 334.695 131.382,331.281 130.594,327.200 130.299 C 326.650 130.259,326.077 130.050,325.927 129.833 C 325.777 129.617,324.652 129.431,323.427 129.420 C 322.203 129.409,321.200 129.302,321.200 129.181 C 321.200 128.910,316.590 128.926,315.817 129.200 M23.902 146.319 C 22.775 146.961,22.003 147.684,22.002 148.100 C 22.001 148.485,21.730 148.800,21.400 148.800 C 21.070 148.800,20.799 149.115,20.798 149.500 C 20.796 149.885,20.535 150.699,20.217 151.308 C 18.902 153.828,20.684 159.600,22.777 159.600 C 23.254 159.600,23.579 159.993,23.730 160.752 C 23.857 161.385,24.205 162.150,24.503 162.452 C 24.801 162.753,25.164 163.315,25.310 163.700 C 25.456 164.085,25.842 164.400,26.169 164.400 C 26.495 164.400,27.069 165.045,27.443 165.833 C 27.817 166.621,28.530 167.421,29.027 167.610 C 29.525 167.799,30.049 168.324,30.193 168.777 C 30.338 169.234,30.798 169.600,31.227 169.600 C 31.742 169.600,32.000 169.876,32.000 170.427 C 32.000 171.081,32.173 171.199,32.828 170.991 C 33.459 170.791,33.709 170.932,33.881 171.587 C 34.014 172.097,34.325 172.361,34.646 172.238 C 34.944 172.123,35.377 172.383,35.608 172.815 C 35.839 173.247,36.292 173.600,36.614 173.600 C 36.936 173.600,37.200 173.891,37.200 174.247 C 37.200 174.708,37.442 174.830,38.044 174.673 C 38.645 174.515,38.944 174.665,39.082 175.192 C 39.285 175.969,40.946 176.604,41.645 176.172 C 41.870 176.033,42.149 176.282,42.265 176.726 C 42.478 177.541,44.116 178.223,44.818 177.789 C 45.028 177.659,45.200 177.833,45.200 178.176 C 45.200 178.519,45.257 178.800,45.327 178.800 C 46.294 178.800,50.331 179.792,50.963 180.185 C 51.423 180.471,52.601 180.825,53.580 180.970 C 54.559 181.116,55.602 181.436,55.897 181.681 C 56.289 182.006,56.553 182.007,56.876 181.684 C 57.200 181.360,57.599 181.382,58.360 181.766 C 60.954 183.076,66.800 182.932,66.800 181.557 C 66.800 181.120,67.096 180.781,67.500 180.755 C 67.885 180.730,70.540 180.622,73.400 180.514 C 81.018 180.226,81.960 180.131,82.610 179.591 C 83.062 179.217,83.332 179.212,83.764 179.570 C 84.150 179.891,84.411 179.906,84.588 179.619 C 84.928 179.069,86.400 179.076,86.400 179.629 C 86.400 179.864,86.683 179.774,87.029 179.429 C 87.699 178.758,87.786 178.735,90.114 178.601 C 91.029 178.549,91.835 178.231,92.152 177.798 C 92.527 177.285,92.966 177.155,93.698 177.339 C 95.824 177.872,100.154 172.095,98.193 171.342 C 97.529 171.087,97.403 169.961,97.973 169.380 C 98.599 168.743,97.184 167.398,94.800 166.364 C 93.545 165.820,90.041 165.609,89.762 166.062 C 89.647 166.248,88.858 166.400,88.010 166.400 C 87.161 166.400,86.399 166.602,86.317 166.848 C 86.179 167.263,84.876 167.491,81.124 167.757 C 80.313 167.815,79.360 168.101,79.007 168.394 C 78.529 168.791,78.251 168.811,77.913 168.473 C 77.575 168.135,77.312 168.141,76.880 168.500 C 76.529 168.791,74.816 168.997,72.531 169.023 L 68.760 169.066 68.880 168.088 C 68.993 167.169,68.873 167.104,66.927 167.026 C 65.787 166.980,64.564 166.702,64.210 166.408 C 63.738 166.016,63.448 165.992,63.122 166.318 C 62.852 166.588,62.427 166.628,62.039 166.421 C 61.687 166.233,61.265 166.061,61.100 166.039 C 60.935 166.018,60.755 165.990,60.700 165.978 C 60.645 165.966,59.790 165.897,58.800 165.825 C 56.398 165.652,53.200 164.797,53.200 164.329 C 53.200 164.122,53.015 164.067,52.789 164.207 C 52.563 164.347,52.068 164.089,51.689 163.634 C 51.310 163.179,50.550 162.728,50.000 162.633 C 49.450 162.538,48.910 162.425,48.800 162.384 C 48.690 162.342,48.383 162.283,48.119 162.254 C 47.854 162.224,47.404 161.888,47.119 161.508 C 46.833 161.127,46.150 160.767,45.600 160.708 C 45.050 160.648,44.471 160.285,44.313 159.900 C 44.155 159.515,43.672 159.200,43.240 159.200 C 42.798 159.200,42.340 158.840,42.193 158.377 C 42.049 157.924,41.480 157.382,40.927 157.172 C 40.375 156.962,39.829 156.433,39.715 155.995 C 39.600 155.558,39.187 155.200,38.797 155.200 C 38.346 155.200,37.861 154.635,37.468 153.653 C 37.127 152.802,36.509 152.017,36.094 151.909 C 35.679 151.800,34.774 150.710,34.084 149.487 C 33.394 148.264,32.462 147.147,32.014 147.005 C 31.566 146.862,31.200 146.601,31.200 146.423 C 31.200 146.060,29.309 145.561,27.200 145.367 C 26.236 145.278,25.209 145.575,23.902 146.319 M245.002 184.000 C 226.186 202.810,210.686 218.531,210.558 218.936 C 210.426 219.348,210.752 220.498,211.297 221.549 C 211.928 222.764,212.171 223.704,211.985 224.213 C 211.751 224.858,211.514 224.584,210.672 222.700 C 210.107 221.435,209.412 220.400,209.128 220.400 C 208.597 220.400,149.200 279.559,149.200 280.089 C 149.200 280.252,149.650 280.498,150.200 280.636 C 150.750 280.774,151.200 281.045,151.200 281.238 C 151.200 281.431,151.785 281.861,152.500 282.192 C 153.215 282.524,155.654 283.774,157.920 284.970 C 160.186 286.166,162.571 287.262,163.220 287.404 C 163.869 287.547,164.400 287.808,164.400 287.984 C 164.400 288.161,165.253 288.520,166.295 288.782 C 167.337 289.045,168.372 289.408,168.595 289.590 C 168.818 289.773,169.810 290.130,170.800 290.384 C 171.790 290.639,173.140 291.082,173.800 291.370 C 174.460 291.658,176.440 292.127,178.200 292.413 C 179.960 292.698,181.492 293.067,181.603 293.233 C 181.715 293.399,184.055 293.744,186.803 294.001 C 189.552 294.257,192.113 294.632,192.495 294.833 C 193.451 295.338,205.486 295.308,205.800 294.800 C 205.936 294.580,206.930 294.400,208.009 294.400 C 211.278 294.400,218.123 293.558,219.400 292.998 C 220.060 292.709,221.995 292.241,223.700 291.958 C 225.405 291.675,226.800 291.319,226.800 291.167 C 226.800 291.014,227.475 290.767,228.300 290.619 C 229.125 290.470,230.459 290.011,231.265 289.599 C 232.071 289.187,233.376 288.728,234.165 288.580 C 234.954 288.432,235.600 288.180,235.600 288.020 C 235.600 287.859,236.320 287.490,237.200 287.200 C 238.080 286.910,238.800 286.521,238.800 286.336 C 238.800 286.151,238.999 286.000,239.242 286.000 C 239.485 286.000,240.580 285.550,241.675 285.000 C 242.770 284.450,243.912 284.000,244.213 284.000 C 244.514 284.000,244.904 283.772,245.080 283.494 C 245.256 283.215,246.163 282.630,247.095 282.194 C 248.028 281.757,248.793 281.265,248.795 281.100 C 248.798 280.935,248.993 280.800,249.228 280.800 C 249.463 280.800,250.441 280.260,251.400 279.600 C 252.359 278.940,253.267 278.400,253.417 278.400 C 253.566 278.400,254.549 277.680,255.600 276.800 C 256.651 275.920,257.668 275.200,257.859 275.200 C 258.051 275.200,258.432 274.840,258.707 274.400 C 258.982 273.960,259.402 273.600,259.640 273.600 C 260.647 273.600,270.945 263.263,273.400 259.787 C 273.840 259.164,274.965 257.709,275.900 256.554 C 276.835 255.399,277.600 254.277,277.600 254.060 C 277.600 253.844,277.735 253.607,277.900 253.533 C 278.369 253.325,280.400 250.210,280.400 249.698 C 280.400 249.446,280.636 249.096,280.923 248.920 C 281.211 248.744,281.689 247.970,281.985 247.200 C 282.281 246.430,282.749 245.613,283.024 245.384 C 283.299 245.155,283.728 244.210,283.977 243.284 C 284.227 242.358,284.575 241.600,284.752 241.600 C 284.929 241.600,285.289 240.880,285.553 240.000 C 285.816 239.120,286.176 238.400,286.352 238.400 C 286.528 238.400,286.913 237.635,287.208 236.700 C 287.503 235.765,287.864 234.820,288.010 234.600 C 288.156 234.380,288.507 233.345,288.790 232.300 C 289.073 231.255,289.436 230.400,289.597 230.400 C 289.759 230.400,290.126 229.275,290.413 227.900 C 290.700 226.525,291.051 225.310,291.193 225.200 C 291.334 225.090,291.772 223.110,292.166 220.800 C 292.560 218.490,293.032 216.240,293.214 215.800 C 294.679 212.276,294.712 185.740,293.255 183.832 C 293.074 183.594,292.688 181.825,292.398 179.900 C 292.108 177.975,291.743 176.400,291.587 176.400 C 291.430 176.400,291.181 175.640,291.032 174.710 C 290.883 173.781,290.487 172.717,290.151 172.345 C 289.814 171.974,289.486 170.995,289.420 170.169 C 289.319 168.902,287.496 164.646,286.777 164.000 C 286.655 163.890,286.307 163.170,286.004 162.400 C 285.702 161.630,285.127 160.571,284.727 160.046 C 284.327 159.521,284.000 158.971,284.000 158.824 C 284.000 158.676,282.923 156.585,281.606 154.178 L 279.212 149.800 245.002 184.000 M170.600 173.197 C 169.500 173.848,168.298 174.287,167.930 174.173 C 167.287 173.974,163.143 175.879,162.867 176.500 C 162.793 176.665,162.163 176.804,161.467 176.809 C 160.770 176.814,159.454 177.156,158.542 177.571 C 157.472 178.056,156.746 178.186,156.496 177.936 C 156.246 177.686,155.912 177.745,155.554 178.101 C 154.784 178.869,152.501 179.614,151.774 179.335 C 151.442 179.207,150.862 179.360,150.485 179.674 C 149.398 180.581,147.748 181.164,146.900 180.942 C 146.458 180.827,145.819 181.038,145.428 181.429 C 145.048 181.810,144.180 182.104,143.497 182.085 C 142.814 182.065,141.658 182.299,140.928 182.604 C 140.198 182.909,139.600 183.005,139.600 182.817 C 139.600 182.339,137.917 182.828,137.240 183.503 C 136.933 183.811,136.328 183.970,135.897 183.857 C 134.988 183.619,133.153 184.235,132.714 184.925 C 132.486 185.284,132.411 185.278,132.406 184.900 C 132.403 184.625,132.040 184.400,131.600 184.400 C 131.160 184.400,130.800 184.580,130.800 184.800 C 130.800 185.020,130.530 185.200,130.200 185.200 C 129.870 185.200,129.600 185.036,129.600 184.836 C 129.600 184.636,128.925 184.794,128.100 185.187 C 127.144 185.642,125.875 185.866,124.600 185.803 C 123.472 185.747,122.228 185.934,121.747 186.231 C 121.277 186.520,120.557 186.753,120.147 186.749 C 119.736 186.744,118.635 186.843,117.700 186.970 C 116.765 187.096,115.293 187.277,114.429 187.371 C 113.564 187.464,112.499 187.733,112.061 187.967 C 111.485 188.275,111.223 188.268,111.113 187.939 C 111.000 187.601,110.743 187.602,110.105 187.944 C 109.611 188.208,109.153 188.248,109.024 188.039 C 108.753 187.600,107.200 187.947,107.200 188.447 C 107.200 188.641,106.930 188.800,106.600 188.800 C 106.227 188.800,106.000 189.178,106.000 189.800 C 106.000 190.846,105.413 191.160,105.064 190.300 C 104.911 189.924,104.757 189.949,104.443 190.400 C 104.097 190.896,103.883 190.913,103.212 190.497 C 102.644 190.145,102.400 190.128,102.400 190.442 C 102.400 190.713,101.925 190.821,101.200 190.715 C 99.958 190.532,99.254 193.285,100.441 193.680 C 100.696 193.765,100.892 194.882,100.906 196.330 C 100.919 197.707,101.050 198.907,101.197 198.998 C 101.345 199.089,101.430 200.162,101.388 201.381 C 101.344 202.641,101.525 203.892,101.808 204.279 C 102.168 204.772,102.189 205.148,101.883 205.639 C 101.565 206.147,101.615 206.472,102.081 206.938 C 102.472 207.329,102.809 208.717,102.989 210.680 C 103.147 212.396,103.505 214.070,103.786 214.400 C 104.066 214.730,104.397 215.806,104.522 216.791 C 104.646 217.777,104.940 218.647,105.174 218.725 C 105.408 218.803,105.600 219.473,105.600 220.215 C 105.600 221.691,106.150 223.195,107.320 224.917 C 107.816 225.647,107.992 226.376,107.830 227.021 C 107.660 227.701,107.855 228.377,108.456 229.191 C 108.955 229.865,109.463 231.348,109.639 232.646 C 109.808 233.897,110.111 235.028,110.312 235.160 C 110.512 235.292,110.929 235.883,111.238 236.472 C 114.705 243.091,115.770 245.134,116.152 245.897 C 116.398 246.390,116.721 246.795,116.869 246.797 C 117.017 246.799,117.354 247.453,117.617 248.252 C 119.267 253.251,117.407 254.785,153.532 218.653 L 185.604 186.576 184.802 185.004 C 184.361 184.139,184.000 183.211,184.000 182.943 C 184.000 182.675,183.612 182.398,183.138 182.328 C 182.346 182.210,180.022 178.770,179.338 176.700 C 179.211 176.315,178.780 176.000,178.380 176.000 C 177.977 176.000,177.529 175.600,177.373 175.100 C 177.007 173.927,176.406 173.569,175.564 174.020 C 174.847 174.403,174.341 174.007,173.875 172.700 C 173.530 171.733,172.917 171.826,170.600 173.197 M101.900 234.703 C 101.515 234.789,101.200 235.013,101.200 235.201 C 101.200 235.390,99.861 236.188,98.225 236.975 C 96.483 237.813,94.906 238.890,94.418 239.574 C 93.961 240.217,92.960 240.949,92.193 241.202 C 91.245 241.515,90.800 241.908,90.800 242.431 C 90.800 242.854,90.549 243.200,90.243 243.200 C 89.936 243.200,89.582 243.470,89.455 243.800 C 89.329 244.130,88.934 244.400,88.577 244.400 C 87.831 244.400,82.400 249.933,82.400 250.694 C 82.400 250.972,82.155 251.200,81.856 251.200 C 81.313 251.200,80.825 251.763,79.086 254.400 C 78.578 255.170,77.811 255.818,77.381 255.841 C 75.775 255.925,75.600 256.019,75.600 256.800 C 75.600 257.244,75.333 257.600,75.000 257.600 C 74.670 257.600,74.400 257.780,74.400 258.000 C 74.400 258.666,74.277 258.979,73.829 259.455 C 72.650 260.708,72.006 261.696,70.714 264.233 C 69.939 265.755,69.171 267.630,69.006 268.400 C 68.841 269.170,68.368 270.122,67.953 270.516 C 67.539 270.909,67.199 271.629,67.198 272.116 C 67.196 272.602,66.926 273.516,66.598 274.146 C 65.869 275.543,65.839 276.268,66.500 276.536 C 66.897 276.697,66.895 276.813,66.490 277.099 C 65.481 277.812,64.802 292.477,65.712 293.882 C 65.884 294.146,65.909 294.824,65.768 295.387 C 65.610 296.014,65.722 296.659,66.055 297.053 C 66.355 297.406,67.241 298.877,68.024 300.322 C 69.586 303.203,72.030 304.673,73.614 303.684 C 74.034 303.422,74.440 303.400,74.668 303.628 C 75.263 304.223,78.889 302.042,79.971 300.439 C 81.169 298.665,81.362 296.257,80.906 288.800 C 80.577 283.425,80.851 278.715,81.544 277.853 C 81.744 277.604,82.039 276.770,82.200 276.000 C 82.361 275.230,82.824 274.286,83.228 273.902 C 84.057 273.114,84.604 270.821,84.268 269.539 C 84.125 268.990,84.393 268.232,85.023 267.406 C 85.560 266.701,86.000 265.916,86.000 265.662 C 86.000 265.408,86.168 265.200,86.373 265.200 C 86.578 265.200,86.847 264.880,86.971 264.490 C 87.095 264.099,87.802 263.154,88.542 262.390 C 89.282 261.625,90.015 260.595,90.171 260.100 C 90.327 259.605,90.716 259.200,91.037 259.200 C 91.357 259.200,91.791 258.750,92.000 258.200 C 92.209 257.650,92.660 257.200,93.003 257.200 C 93.345 257.200,93.744 256.885,93.889 256.500 C 94.279 255.466,97.293 252.551,98.304 252.231 C 98.785 252.078,99.572 251.401,100.053 250.726 C 100.533 250.051,101.679 249.166,102.598 248.760 C 104.961 247.715,108.639 244.111,108.984 242.505 C 109.137 241.792,109.431 241.105,109.638 240.977 C 109.845 240.849,109.651 240.282,109.207 239.718 C 108.763 239.154,108.400 238.446,108.400 238.146 C 108.400 237.846,108.240 237.600,108.043 237.600 C 107.847 237.600,107.574 237.150,107.436 236.600 C 107.298 236.050,106.873 235.573,106.492 235.539 C 105.527 235.454,105.106 235.362,104.300 235.061 C 103.101 234.614,102.623 234.542,101.900 234.703 M328.684 240.351 C 328.340 241.148,327.848 242.610,327.590 243.600 C 327.333 244.590,326.992 245.580,326.833 245.800 C 326.674 246.020,326.299 247.010,326.000 248.000 C 325.701 248.990,325.307 250.000,325.126 250.244 C 324.564 250.998,323.661 254.391,323.971 254.582 C 324.132 254.682,325.212 254.693,326.371 254.606 C 327.530 254.520,328.922 254.618,329.465 254.825 C 330.104 255.068,330.726 255.054,331.226 254.786 C 331.774 254.493,332.000 254.501,332.000 254.813 C 332.000 255.072,332.330 255.149,332.800 255.000 C 333.259 254.854,333.600 254.928,333.600 255.173 C 333.600 255.769,334.689 255.709,334.936 255.100 C 335.093 254.713,335.227 254.725,335.525 255.151 C 335.737 255.454,336.095 255.588,336.321 255.449 C 336.547 255.309,336.796 255.387,336.874 255.622 C 336.999 255.996,337.623 256.056,340.461 255.965 C 340.824 255.954,341.944 256.319,342.948 256.776 C 343.953 257.234,344.915 257.576,345.087 257.537 C 345.888 257.354,348.487 258.160,348.675 258.651 C 348.791 258.953,349.136 259.200,349.443 259.200 C 349.749 259.200,350.000 259.391,350.000 259.624 C 350.000 259.857,350.176 259.938,350.392 259.805 C 350.862 259.514,352.476 260.307,352.911 261.042 C 353.081 261.331,353.486 261.465,353.811 261.341 C 354.135 261.216,354.400 261.314,354.400 261.557 C 354.400 261.801,354.741 262.000,355.157 262.000 C 355.574 262.000,356.017 262.267,356.142 262.593 C 356.272 262.931,356.635 263.085,356.985 262.950 C 357.383 262.797,357.600 262.944,357.600 263.367 C 357.600 263.726,358.050 264.191,358.600 264.400 C 359.150 264.609,359.600 264.965,359.600 265.190 C 359.600 265.416,359.883 265.600,360.229 265.600 C 360.947 265.600,362.000 266.534,362.000 267.171 C 362.000 267.407,362.326 267.600,362.725 267.600 C 363.188 267.600,363.657 268.126,364.021 269.054 C 364.385 269.982,364.973 270.641,365.644 270.875 C 366.337 271.117,366.822 271.679,367.063 272.521 C 367.265 273.224,367.693 273.800,368.015 273.800 C 368.337 273.800,368.906 274.284,369.280 274.877 C 369.654 275.469,370.284 275.957,370.680 275.961 C 371.076 275.965,372.300 276.065,373.400 276.182 C 375.440 276.398,378.000 275.835,378.000 275.169 C 378.000 274.966,378.249 274.800,378.553 274.800 C 378.858 274.800,379.222 274.485,379.363 274.100 C 379.504 273.715,379.921 272.860,380.289 272.200 C 381.945 269.233,380.528 261.412,378.478 262.193 C 378.163 262.313,377.790 261.918,377.539 261.196 C 377.309 260.538,376.988 260.000,376.825 260.000 C 376.662 260.000,376.307 259.514,376.037 258.921 C 375.652 258.077,375.469 257.965,375.195 258.407 C 374.862 258.947,374.000 257.481,374.000 256.374 C 374.000 256.168,373.636 256.000,373.190 256.000 C 372.706 256.000,372.235 255.618,372.019 255.051 C 371.821 254.529,371.195 253.985,370.629 253.843 C 370.063 253.701,369.600 253.314,369.600 252.982 C 369.600 252.651,369.150 252.209,368.600 252.000 C 368.050 251.791,367.600 251.435,367.600 251.210 C 367.600 250.984,367.240 250.800,366.800 250.800 C 366.252 250.800,366.000 250.533,366.000 249.953 C 366.000 249.309,365.813 249.156,365.214 249.312 C 364.689 249.450,364.352 249.279,364.200 248.799 C 363.962 248.050,362.244 247.402,361.582 247.811 C 361.372 247.941,361.200 247.664,361.200 247.197 C 361.200 246.528,361.029 246.400,360.400 246.600 C 359.941 246.746,359.600 246.672,359.600 246.427 C 359.600 246.192,359.240 246.000,358.800 246.000 C 358.340 246.000,358.000 245.733,358.000 245.373 C 358.000 244.928,357.768 244.820,357.200 245.000 C 356.760 245.140,356.400 245.078,356.400 244.864 C 356.400 244.649,355.500 244.243,354.400 243.961 C 353.278 243.674,352.400 243.219,352.400 242.924 C 352.400 242.636,352.085 242.399,351.700 242.398 C 351.315 242.396,350.508 242.138,349.907 241.825 C 349.265 241.490,348.718 241.410,348.581 241.630 C 348.450 241.842,348.092 241.749,347.761 241.418 C 347.411 241.069,346.474 240.844,345.452 240.864 C 344.506 240.883,343.335 240.686,342.850 240.427 C 342.365 240.167,341.021 239.907,339.862 239.849 C 338.703 239.791,337.496 239.582,337.178 239.385 C 336.860 239.188,334.959 238.999,332.954 238.965 L 329.309 238.902 328.684 240.351 M158.064 330.219 C 157.809 330.779,157.600 331.499,157.600 331.819 C 157.600 332.138,157.420 332.400,157.200 332.400 C 156.980 332.400,156.800 332.630,156.800 332.911 C 156.800 333.192,156.440 333.730,156.000 334.107 C 155.560 334.484,155.200 335.143,155.200 335.572 C 155.200 336.002,155.020 336.464,154.800 336.600 C 154.580 336.736,154.400 337.169,154.400 337.562 C 154.400 337.955,154.068 338.576,153.662 338.944 C 153.257 339.311,152.704 340.597,152.435 341.801 C 152.165 343.006,151.722 344.128,151.449 344.296 C 150.697 344.758,148.857 350.775,148.884 352.681 C 148.898 353.606,148.611 354.991,148.246 355.759 C 147.882 356.527,147.589 357.660,147.594 358.277 C 147.600 358.895,147.510 362.257,147.393 365.748 C 147.256 369.865,147.328 372.272,147.598 372.597 C 147.827 372.873,147.901 373.391,147.764 373.749 C 147.627 374.107,147.658 374.715,147.834 375.100 C 148.009 375.485,148.201 376.340,148.258 377.000 C 148.496 379.707,148.942 381.458,149.651 382.462 C 150.063 383.046,150.400 384.093,150.400 384.788 C 150.400 385.987,150.989 387.564,151.600 388.000 C 151.754 388.110,152.061 388.740,152.283 389.400 C 152.528 390.130,152.943 390.578,153.343 390.544 C 153.704 390.514,154.000 390.668,154.000 390.887 C 154.000 391.106,154.270 391.182,154.600 391.055 C 154.930 390.929,155.200 391.020,155.200 391.259 C 155.200 391.498,155.560 391.599,156.000 391.484 C 156.440 391.369,156.800 391.427,156.800 391.612 C 156.800 393.576,162.907 390.684,164.144 388.134 C 164.554 387.290,165.049 386.287,165.244 385.905 C 165.707 385.002,165.704 382.800,165.240 382.800 C 164.898 382.800,164.528 380.749,164.289 377.531 C 164.229 376.723,163.889 375.733,163.535 375.331 C 163.108 374.846,162.958 374.162,163.091 373.300 C 163.201 372.585,163.124 372.000,162.921 372.000 C 162.225 372.000,162.625 360.176,163.375 358.597 C 163.742 357.824,163.924 357.001,163.781 356.768 C 163.367 356.099,164.880 350.320,165.678 349.522 C 166.075 349.125,166.400 348.440,166.400 348.000 C 166.400 347.560,166.564 347.200,166.765 347.200 C 166.966 347.200,167.249 346.494,167.395 345.631 C 167.540 344.769,167.899 343.971,168.192 343.858 C 168.485 343.746,168.849 343.090,169.000 342.400 C 169.151 341.710,169.524 341.051,169.827 340.934 C 170.130 340.818,170.496 340.096,170.640 339.329 C 170.783 338.563,171.148 337.841,171.451 337.725 C 171.753 337.609,172.007 337.309,172.016 337.057 C 172.025 336.806,172.565 335.977,173.216 335.215 C 174.969 333.164,174.569 332.423,171.700 332.405 C 171.205 332.402,170.800 332.233,170.800 332.029 C 170.800 331.825,169.765 331.534,168.500 331.384 C 167.235 331.233,165.660 330.878,165.000 330.595 C 163.582 329.986,160.363 329.200,159.287 329.200 C 158.862 329.200,158.324 329.648,158.064 330.219 " stroke="none" fill="#fcfcfc" fill-rule="evenodd"></path><path id="path1" d="M183.806 65.686 C 181.389 65.891,179.319 66.199,179.206 66.372 C 179.093 66.544,177.830 66.810,176.400 66.962 C 172.395 67.390,168.800 68.103,168.800 68.469 C 168.800 68.651,168.364 68.800,167.831 68.800 C 166.577 68.800,162.660 69.681,162.400 70.022 C 162.290 70.166,161.214 70.518,160.010 70.803 C 157.240 71.461,156.384 72.199,157.451 73.009 C 157.863 73.322,158.427 73.498,158.703 73.400 C 159.508 73.116,161.200 73.923,161.200 74.590 C 161.200 74.933,161.550 75.200,162.000 75.200 C 162.440 75.200,162.800 75.380,162.800 75.600 C 162.800 75.820,163.068 76.000,163.397 76.000 C 163.725 76.000,164.218 76.360,164.493 76.800 C 164.768 77.240,165.309 77.600,165.696 77.600 C 166.083 77.600,166.400 77.857,166.400 78.172 C 166.400 78.487,166.805 78.802,167.300 78.872 C 167.877 78.954,168.463 79.538,168.933 80.500 C 169.336 81.325,169.926 82.000,170.243 82.000 C 170.560 82.000,170.991 82.450,171.200 83.000 C 171.409 83.550,171.736 84.000,171.926 84.000 C 172.116 84.000,172.510 84.720,172.800 85.600 C 173.090 86.480,173.450 87.200,173.600 87.200 C 173.750 87.200,174.110 87.920,174.400 88.800 C 174.690 89.680,175.079 90.400,175.264 90.400 C 175.449 90.400,175.600 90.670,175.600 91.000 C 175.600 91.711,178.985 91.871,179.412 91.181 C 179.588 90.895,179.857 90.915,180.253 91.244 C 180.671 91.591,180.956 91.604,181.268 91.292 C 181.581 90.979,181.927 90.990,182.504 91.329 C 183.127 91.696,183.345 91.689,183.486 91.300 C 183.585 91.025,183.907 90.800,184.200 90.800 C 184.493 90.800,184.825 91.025,184.936 91.300 C 185.090 91.680,185.236 91.660,185.544 91.218 C 185.884 90.730,186.104 90.720,186.925 91.160 C 187.463 91.448,189.589 91.744,191.651 91.819 C 193.713 91.894,195.670 91.978,196.000 92.005 C 197.044 92.092,200.000 92.966,200.000 93.187 C 200.001 93.588,202.200 93.530,202.700 93.116 C 203.031 92.842,203.200 92.839,203.200 93.107 C 203.200 93.541,205.747 94.216,206.900 94.088 C 207.285 94.045,207.600 94.187,207.600 94.405 C 207.600 94.622,207.735 94.771,207.900 94.735 C 208.065 94.700,208.740 94.902,209.400 95.184 C 210.060 95.466,211.095 95.705,211.700 95.715 C 212.305 95.725,212.800 95.894,212.800 96.090 C 212.800 96.287,212.968 96.344,213.172 96.217 C 213.377 96.091,213.645 96.149,213.768 96.348 C 213.891 96.547,214.618 96.827,215.385 96.971 C 216.151 97.115,216.918 97.458,217.089 97.733 C 217.390 98.219,219.813 99.141,221.355 99.357 C 221.771 99.415,222.331 99.764,222.599 100.132 C 222.868 100.499,223.383 100.800,223.744 100.800 C 224.105 100.800,224.400 100.972,224.400 101.182 C 224.400 101.392,225.030 101.682,225.800 101.826 C 226.570 101.971,227.200 102.215,227.200 102.370 C 227.200 102.524,227.830 102.898,228.600 103.200 C 229.370 103.502,230.000 103.896,230.000 104.075 C 230.000 104.254,230.360 104.400,230.800 104.400 C 231.240 104.400,231.600 104.580,231.600 104.800 C 231.600 105.020,231.960 105.200,232.400 105.200 C 232.840 105.200,233.200 105.380,233.200 105.600 C 233.200 105.820,233.539 106.000,233.953 106.000 C 234.370 106.000,234.800 106.357,234.916 106.800 C 235.108 107.536,236.006 107.824,237.500 107.630 C 237.775 107.594,238.000 107.848,238.000 108.195 C 238.000 108.542,238.315 108.941,238.700 109.082 C 239.085 109.224,239.544 109.578,239.720 109.870 C 239.896 110.161,240.391 110.400,240.820 110.400 C 241.763 110.400,241.798 110.857,240.975 112.449 C 240.308 113.738,240.703 114.800,241.849 114.800 C 242.152 114.800,242.400 114.941,242.400 115.112 C 242.400 115.866,244.933 116.404,245.607 115.794 C 246.542 114.947,247.502 115.060,247.817 116.053 C 248.012 116.667,248.175 116.764,248.401 116.399 C 248.631 116.026,248.834 116.117,249.171 116.746 C 249.422 117.216,249.892 117.600,250.214 117.600 C 251.423 117.600,252.535 119.200,252.009 120.183 C 251.539 121.062,200.475 172.010,190.652 181.400 C 187.891 184.040,185.624 186.380,185.616 186.601 C 185.568 187.811,120.969 251.491,119.834 251.446 C 118.561 251.396,118.083 250.652,113.561 241.700 C 112.423 239.445,111.364 237.600,111.209 237.600 C 111.055 237.600,110.690 236.880,110.400 236.000 C 110.110 235.120,109.744 234.400,109.587 234.400 C 109.430 234.400,109.214 233.488,109.107 232.374 C 108.990 231.156,108.556 229.867,108.019 229.140 C 107.493 228.429,107.211 227.603,107.333 227.136 C 107.453 226.676,107.047 225.441,106.370 224.209 C 105.727 223.036,105.194 221.474,105.187 220.738 C 105.180 220.002,104.910 219.051,104.587 218.624 C 104.264 218.196,104.000 217.221,104.000 216.455 C 104.000 215.689,103.752 214.779,103.448 214.431 C 102.957 213.869,102.154 209.715,101.835 206.085 C 101.771 205.362,101.467 204.297,101.160 203.720 C 100.709 202.874,100.701 202.635,101.117 202.496 C 101.513 202.363,101.525 202.192,101.169 201.763 C 100.914 201.456,100.800 200.843,100.915 200.403 C 101.031 199.962,100.955 199.496,100.748 199.368 C 100.541 199.240,100.395 198.475,100.424 197.668 C 100.452 196.860,100.346 194.850,100.188 193.199 L 99.899 190.198 102.573 190.156 C 105.905 190.103,106.012 189.988,106.115 186.365 C 106.162 184.734,106.354 183.288,106.541 183.151 C 106.729 183.014,106.021 182.966,104.968 183.045 C 103.916 183.124,102.913 183.416,102.739 183.694 C 102.494 184.088,102.256 184.095,101.664 183.729 C 101.099 183.379,100.786 183.374,100.451 183.709 C 100.116 184.044,100.000 183.939,100.000 183.304 C 100.000 182.833,99.811 182.331,99.581 182.188 C 99.291 182.009,99.298 181.764,99.604 181.396 C 99.930 181.003,99.909 180.641,99.523 180.019 C 99.148 179.415,99.126 179.094,99.442 178.888 C 99.840 178.629,100.243 175.313,100.613 169.241 C 100.687 168.019,100.974 166.936,101.272 166.747 C 101.672 166.494,101.679 166.411,101.300 166.406 C 101.012 166.403,100.800 165.890,100.800 165.200 C 100.800 164.540,100.964 164.000,101.165 164.000 C 101.548 164.000,102.240 161.030,102.096 160.000 C 101.978 159.149,102.772 155.623,103.402 154.200 C 103.694 153.540,104.062 152.280,104.219 151.400 C 104.376 150.520,104.638 149.620,104.801 149.400 C 104.964 149.180,105.339 148.010,105.636 146.800 C 105.932 145.590,106.673 143.741,107.282 142.692 C 107.891 141.642,108.501 140.335,108.639 139.787 C 108.777 139.238,109.114 138.657,109.388 138.495 C 109.662 138.333,110.107 137.269,110.376 136.130 C 110.645 134.992,111.111 133.966,111.411 133.851 C 111.710 133.736,112.076 133.003,112.222 132.221 C 112.376 131.403,112.725 130.800,113.045 130.800 C 113.350 130.800,113.600 130.480,113.600 130.088 C 113.600 129.697,113.960 129.117,114.400 128.800 C 114.840 128.483,115.200 127.993,115.200 127.712 C 115.200 127.430,115.380 127.200,115.600 127.200 C 115.820 127.200,116.006 126.975,116.013 126.700 C 116.020 126.425,116.632 125.597,117.373 124.859 C 118.331 123.906,118.798 123.009,118.985 121.759 C 119.130 120.792,119.463 119.995,119.725 119.988 C 119.986 119.981,119.885 119.792,119.500 119.568 C 119.115 119.344,118.800 118.912,118.800 118.608 C 118.800 118.304,118.395 117.998,117.900 117.928 C 117.140 117.820,117.020 117.593,117.130 116.465 C 117.209 115.663,117.015 114.858,116.646 114.450 C 115.832 113.551,114.648 110.853,114.518 109.600 C 114.461 109.050,114.307 107.790,114.175 106.800 C 113.871 104.510,113.866 104.194,114.055 99.500 C 114.235 95.040,114.252 95.060,112.048 97.200 C 111.141 98.080,110.294 98.800,110.166 98.800 C 109.842 98.800,99.200 109.503,99.200 109.829 C 99.200 109.975,98.480 110.792,97.600 111.646 C 96.720 112.500,96.000 113.360,96.000 113.558 C 96.000 113.755,95.553 114.340,95.007 114.858 C 94.461 115.376,94.011 116.019,94.007 116.286 C 94.003 116.553,93.640 116.965,93.200 117.200 C 92.760 117.435,92.400 117.885,92.400 118.200 C 92.400 118.515,92.040 118.965,91.600 119.200 C 91.160 119.435,90.800 119.897,90.800 120.227 C 90.800 120.556,90.561 120.917,90.268 121.029 C 89.976 121.141,89.492 121.856,89.193 122.617 C 88.895 123.377,88.513 124.000,88.344 124.000 C 88.175 124.000,87.724 124.675,87.340 125.500 C 86.957 126.325,86.408 127.144,86.122 127.320 C 85.835 127.496,85.600 127.873,85.600 128.159 C 85.600 128.444,85.235 129.098,84.789 129.613 C 84.343 130.127,83.874 130.964,83.746 131.474 C 83.618 131.983,83.397 132.400,83.254 132.400 C 83.112 132.400,82.741 132.985,82.430 133.700 C 82.119 134.415,81.747 135.090,81.603 135.200 C 81.459 135.310,80.738 136.660,80.000 138.200 C 79.262 139.740,78.534 141.090,78.382 141.200 C 78.230 141.310,77.807 142.435,77.442 143.700 C 77.077 144.965,76.624 146.000,76.436 146.000 C 76.249 146.000,75.891 146.810,75.642 147.800 C 75.392 148.790,75.040 149.600,74.858 149.600 C 74.676 149.600,74.290 150.590,74.000 151.800 C 73.710 153.010,73.346 154.000,73.191 154.000 C 73.036 154.000,72.680 155.080,72.400 156.400 C 72.120 157.720,71.760 158.800,71.600 158.800 C 71.440 158.800,71.074 159.925,70.787 161.300 C 70.500 162.675,70.111 163.904,69.922 164.030 C 68.961 164.675,69.064 168.399,70.044 168.453 C 73.529 168.647,76.578 168.467,76.713 168.060 C 76.918 167.446,77.882 167.473,78.136 168.100 C 78.293 168.487,78.426 168.475,78.724 168.050 C 78.936 167.747,79.850 167.433,80.755 167.351 C 81.660 167.270,83.116 167.139,83.990 167.059 C 84.864 166.980,85.865 166.678,86.214 166.389 C 86.867 165.847,88.463 165.597,91.600 165.546 C 94.982 165.492,95.928 165.682,96.132 166.460 C 96.242 166.883,96.684 167.200,97.163 167.200 C 97.623 167.200,98.000 167.455,98.000 167.767 C 98.000 168.078,98.205 168.402,98.454 168.485 C 98.780 168.593,98.756 168.881,98.372 169.496 C 97.910 170.235,97.931 170.461,98.521 171.112 C 99.676 172.389,98.854 175.045,97.100 175.710 C 96.715 175.856,96.400 176.255,96.400 176.597 C 96.400 177.302,94.549 178.143,93.709 177.820 C 93.405 177.704,92.639 177.991,92.007 178.458 C 91.350 178.944,90.579 179.201,90.207 179.058 C 89.848 178.920,88.966 179.054,88.245 179.355 C 87.525 179.656,86.007 179.858,84.873 179.803 C 83.695 179.747,82.516 179.919,82.125 180.205 C 81.606 180.585,81.261 180.596,80.708 180.253 C 80.140 179.902,79.898 179.925,79.628 180.359 C 79.296 180.892,78.424 180.951,67.500 181.185 C 67.115 181.193,66.800 181.455,66.800 181.767 C 66.800 182.078,66.627 182.393,66.416 182.467 C 65.255 182.869,65.163 216.766,66.320 217.577 C 66.495 217.700,66.947 220.401,67.326 223.580 C 67.704 226.760,68.161 229.460,68.341 229.580 C 68.521 229.701,68.903 231.195,69.191 232.900 C 69.478 234.605,69.847 236.000,70.011 236.000 C 70.175 236.000,70.530 237.170,70.800 238.600 C 71.070 240.030,71.426 241.200,71.591 241.200 C 71.756 241.200,72.120 242.280,72.400 243.600 C 72.680 244.920,73.036 246.000,73.191 246.000 C 73.346 246.000,73.710 246.990,74.000 248.200 C 74.290 249.410,74.676 250.400,74.858 250.400 C 75.040 250.400,75.392 251.210,75.642 252.200 C 75.891 253.190,76.241 254.000,76.421 254.000 C 76.600 254.000,76.857 254.351,76.994 254.780 C 77.285 255.697,78.261 255.467,78.600 254.402 C 78.726 254.003,79.988 252.445,81.405 250.938 C 82.821 249.432,83.984 248.004,83.990 247.764 C 83.995 247.525,84.450 247.123,85.000 246.873 C 85.550 246.622,86.002 246.188,86.005 245.909 C 86.008 245.629,86.998 244.780,88.205 244.022 C 89.412 243.264,90.400 242.425,90.400 242.157 C 90.400 241.890,91.210 241.279,92.200 240.800 C 93.190 240.321,94.000 239.715,94.000 239.453 C 94.000 238.765,95.292 237.763,96.956 237.162 C 97.750 236.874,98.400 236.508,98.400 236.347 C 98.400 236.186,98.802 235.926,99.292 235.771 C 99.783 235.615,100.642 235.149,101.202 234.736 C 102.200 233.998,104.800 234.048,104.800 234.806 C 104.800 234.974,105.025 235.103,105.300 235.093 C 107.101 235.026,107.445 235.302,108.702 237.819 C 110.474 241.367,109.786 244.682,107.062 245.722 C 106.656 245.877,106.229 246.368,106.112 246.814 C 105.979 247.322,104.928 248.093,103.291 248.882 C 101.650 249.674,100.444 250.558,100.041 251.268 C 99.688 251.888,99.155 252.396,98.857 252.397 C 98.234 252.400,94.000 256.509,94.000 257.110 C 94.000 257.328,93.640 257.601,93.200 257.716 C 92.760 257.831,92.399 258.167,92.397 258.463 C 92.396 258.758,91.856 259.307,91.197 259.681 C 90.539 260.056,90.000 260.641,90.000 260.981 C 90.000 261.322,89.820 261.600,89.600 261.600 C 89.380 261.600,89.200 261.861,89.200 262.180 C 89.200 262.499,88.975 262.904,88.700 263.080 C 88.048 263.497,85.600 267.013,85.600 267.532 C 85.600 267.753,85.448 267.993,85.262 268.067 C 84.785 268.255,84.308 270.400,84.744 270.400 C 84.941 270.400,85.327 270.940,85.600 271.600 C 85.873 272.260,86.211 272.800,86.351 272.800 C 86.490 272.800,86.852 273.385,87.155 274.100 C 87.458 274.815,87.907 275.584,88.153 275.808 C 88.827 276.423,89.600 277.912,89.600 278.595 C 89.600 278.928,89.744 279.200,89.920 279.200 C 90.095 279.200,90.460 279.810,90.729 280.556 C 91.047 281.433,91.639 282.085,92.410 282.404 C 93.064 282.675,93.600 283.044,93.600 283.224 C 93.600 283.404,94.140 284.142,94.800 284.864 C 95.460 285.587,96.000 286.318,96.000 286.490 C 96.000 286.661,96.720 287.500,97.600 288.354 C 98.480 289.208,99.200 290.033,99.200 290.187 C 99.200 290.540,109.844 301.200,110.196 301.200 C 110.338 301.200,111.027 301.803,111.727 302.539 C 112.427 303.275,113.450 304.114,114.000 304.402 C 114.550 304.691,115.235 305.258,115.523 305.663 C 115.810 306.069,116.262 306.400,116.526 306.400 C 116.791 306.400,117.232 306.760,117.507 307.200 C 117.782 307.640,118.185 308.000,118.403 308.000 C 118.622 308.000,119.147 308.315,119.571 308.700 C 120.994 309.991,121.564 310.401,122.585 310.866 C 123.143 311.120,123.600 311.489,123.600 311.685 C 123.600 311.881,124.140 312.230,124.800 312.460 C 125.460 312.690,126.000 313.012,126.000 313.175 C 126.000 313.338,126.718 313.815,127.595 314.236 C 128.473 314.656,129.193 315.101,129.195 315.225 C 129.198 315.349,129.830 315.698,130.600 316.000 C 131.370 316.302,132.000 316.678,132.000 316.836 C 132.000 316.993,132.540 317.310,133.200 317.540 C 133.860 317.770,134.400 318.119,134.400 318.316 C 134.400 318.512,135.120 318.889,136.000 319.153 C 136.880 319.416,137.600 319.776,137.600 319.952 C 137.600 320.128,138.320 320.510,139.200 320.800 C 140.080 321.090,140.800 321.450,140.800 321.600 C 140.800 321.750,141.520 322.110,142.400 322.400 C 143.280 322.690,144.000 323.034,144.000 323.164 C 144.000 323.294,145.170 323.753,146.600 324.185 C 148.030 324.617,149.200 325.090,149.200 325.237 C 149.200 325.385,150.010 325.709,151.000 325.958 C 151.990 326.208,152.800 326.564,152.800 326.751 C 152.800 326.938,153.880 327.320,155.200 327.600 C 156.520 327.880,157.600 328.240,157.600 328.399 C 157.600 328.558,158.705 328.789,160.056 328.912 C 161.407 329.034,162.622 329.293,162.756 329.487 C 163.039 329.897,166.806 330.800,168.231 330.800 C 168.764 330.800,169.200 330.980,169.200 331.200 C 169.200 331.420,169.489 331.600,169.843 331.600 C 170.960 331.600,176.000 332.918,176.000 333.211 C 176.000 333.364,178.295 333.740,181.100 334.045 C 191.636 335.192,224.000 334.513,224.000 333.145 C 224.000 332.955,224.474 332.800,225.054 332.800 C 226.782 332.800,231.200 331.888,231.200 331.531 C 231.200 331.349,231.594 331.200,232.076 331.200 C 233.423 331.200,237.600 330.273,237.600 329.975 C 237.600 329.829,238.680 329.480,240.000 329.200 C 241.320 328.920,242.400 328.560,242.400 328.400 C 242.400 328.240,243.480 327.880,244.800 327.600 C 246.120 327.320,247.200 326.938,247.200 326.751 C 247.200 326.564,248.010 326.208,249.000 325.958 C 249.990 325.709,250.800 325.391,250.800 325.253 C 250.800 325.114,251.970 324.647,253.400 324.215 C 254.830 323.783,256.000 323.317,256.000 323.179 C 256.000 323.041,256.720 322.690,257.600 322.400 C 258.480 322.110,259.200 321.750,259.200 321.600 C 259.200 321.450,259.920 321.090,260.800 320.800 C 261.680 320.510,262.400 320.150,262.400 320.000 C 262.400 319.850,263.120 319.490,264.000 319.200 C 264.880 318.910,265.600 318.511,265.600 318.315 C 265.600 318.119,266.140 317.770,266.800 317.540 C 267.460 317.310,268.000 317.003,268.000 316.859 C 268.000 316.714,268.585 316.341,269.300 316.030 C 270.015 315.719,270.690 315.350,270.800 315.211 C 270.910 315.072,271.675 314.644,272.500 314.260 C 273.325 313.877,274.000 313.391,274.000 313.181 C 274.000 312.972,274.270 312.800,274.600 312.800 C 274.930 312.800,275.546 312.454,275.970 312.030 C 276.393 311.607,277.147 311.043,277.645 310.776 C 278.604 310.263,279.181 309.833,280.429 308.700 C 280.853 308.315,281.378 308.000,281.597 308.000 C 281.815 308.000,282.218 307.640,282.493 307.200 C 282.768 306.760,283.177 306.400,283.402 306.400 C 283.850 306.400,285.550 305.037,288.017 302.700 C 288.887 301.875,289.715 301.200,289.855 301.200 C 290.239 301.200,300.799 290.532,300.804 290.140 C 300.806 289.953,301.524 289.170,302.400 288.400 C 303.276 287.630,303.994 286.815,303.996 286.589 C 304.000 286.225,305.249 284.638,307.005 282.766 C 307.332 282.418,307.600 281.929,307.600 281.681 C 307.600 281.432,307.960 281.035,308.400 280.800 C 308.840 280.565,309.200 280.103,309.200 279.773 C 309.200 279.444,309.439 279.083,309.732 278.971 C 310.024 278.859,310.508 278.144,310.807 277.383 C 311.105 276.623,311.500 276.000,311.685 276.000 C 311.869 276.000,312.191 275.550,312.400 275.000 C 312.609 274.450,312.928 274.000,313.110 274.000 C 313.291 274.000,313.667 273.370,313.946 272.600 C 314.224 271.830,314.593 271.200,314.766 271.200 C 314.938 271.200,315.413 270.390,315.822 269.400 C 316.230 268.410,316.671 267.600,316.802 267.600 C 316.932 267.600,317.267 266.970,317.546 266.200 C 317.824 265.430,318.206 264.800,318.395 264.800 C 318.584 264.800,318.946 264.170,319.200 263.400 C 319.454 262.630,319.800 262.000,319.968 262.000 C 320.136 262.000,320.489 261.280,320.753 260.400 C 321.016 259.520,321.387 258.800,321.576 258.800 C 321.765 258.800,322.136 257.900,322.400 256.800 C 322.664 255.700,323.052 254.800,323.264 254.800 C 323.475 254.800,323.557 254.653,323.446 254.474 C 323.171 254.030,324.378 250.000,324.786 250.000 C 324.965 250.000,325.222 249.415,325.358 248.700 C 325.493 247.985,325.856 246.917,326.164 246.327 C 326.473 245.737,326.851 244.657,327.004 243.927 C 327.268 242.675,327.556 241.915,329.000 238.640 C 329.330 237.891,329.600 236.991,329.600 236.640 C 329.600 236.288,329.755 236.000,329.943 236.000 C 330.132 236.000,330.522 234.605,330.809 232.900 C 331.097 231.195,331.476 229.703,331.653 229.585 C 331.829 229.466,332.190 227.576,332.455 225.385 C 332.719 223.193,333.058 221.310,333.206 221.200 C 333.630 220.886,334.400 212.177,334.400 207.700 C 334.400 205.430,334.576 203.538,334.800 203.400 C 335.020 203.264,335.200 201.543,335.200 199.576 C 335.200 197.459,335.037 196.000,334.800 196.000 C 334.563 196.000,334.400 194.521,334.400 192.363 C 334.400 187.833,333.665 179.270,333.184 178.200 C 332.986 177.760,332.624 175.872,332.380 174.004 C 332.135 172.136,331.808 170.516,331.653 170.404 C 331.498 170.292,331.146 168.857,330.872 167.215 C 330.598 165.574,330.230 164.134,330.054 164.015 C 329.879 163.897,329.500 162.675,329.213 161.300 C 328.926 159.925,328.560 158.800,328.400 158.800 C 328.240 158.800,327.880 157.720,327.600 156.400 C 327.320 155.080,326.964 154.000,326.809 154.000 C 326.654 154.000,326.285 152.989,325.989 151.754 C 325.692 150.518,325.236 149.293,324.974 149.031 C 324.712 148.769,324.376 148.002,324.228 147.328 C 324.080 146.653,323.518 145.686,322.979 145.181 C 322.441 144.675,322.000 144.047,322.000 143.786 C 322.000 143.305,318.775 136.867,316.465 132.738 C 315.769 131.494,315.200 130.099,315.200 129.638 C 315.200 129.177,315.054 128.800,314.875 128.800 C 314.696 128.800,314.302 128.170,314.000 127.400 C 313.698 126.630,313.300 126.000,313.115 126.000 C 312.931 126.000,312.609 125.550,312.400 125.000 C 312.191 124.450,311.869 124.000,311.685 124.000 C 311.500 124.000,311.105 123.377,310.807 122.617 C 310.508 121.856,310.024 121.141,309.732 121.029 C 309.439 120.917,309.200 120.556,309.200 120.227 C 309.200 119.897,308.840 119.435,308.400 119.200 C 307.960 118.965,307.600 118.515,307.600 118.200 C 307.600 117.885,307.240 117.435,306.800 117.200 C 306.360 116.965,305.997 116.553,305.993 116.286 C 305.989 116.019,305.539 115.376,304.993 114.858 C 304.447 114.340,303.998 113.710,303.996 113.458 C 303.994 113.206,303.276 112.370,302.400 111.600 C 301.524 110.830,300.806 110.055,300.804 109.877 C 300.799 109.499,290.233 98.800,289.864 98.800 C 289.726 98.800,288.935 98.176,288.107 97.413 C 285.236 94.772,283.820 93.600,283.498 93.600 C 283.321 93.600,282.513 92.880,281.704 92.000 C 280.895 91.120,279.911 90.400,279.516 90.400 C 279.122 90.400,278.800 90.242,278.800 90.049 C 278.800 89.855,278.260 89.473,277.600 89.200 C 276.940 88.927,276.400 88.536,276.400 88.331 C 276.400 88.127,275.770 87.696,275.000 87.374 C 274.230 87.052,273.600 86.645,273.600 86.469 C 273.600 86.293,272.970 85.902,272.200 85.600 C 271.430 85.298,270.800 84.938,270.800 84.800 C 270.800 84.662,270.170 84.302,269.400 84.000 C 268.630 83.698,268.000 83.322,268.000 83.164 C 268.000 83.007,267.460 82.690,266.800 82.460 C 266.140 82.230,265.600 81.881,265.600 81.685 C 265.600 81.489,264.880 81.090,264.000 80.800 C 263.120 80.510,262.400 80.150,262.400 80.000 C 262.400 79.850,261.680 79.490,260.800 79.200 C 259.920 78.910,259.200 78.521,259.200 78.336 C 259.200 77.645,256.383 77.978,256.117 78.700 C 255.975 79.085,255.441 79.957,254.929 80.638 C 254.418 81.319,254.000 81.994,254.000 82.138 C 254.000 82.282,253.685 82.730,253.300 83.134 C 252.915 83.538,252.330 84.278,252.000 84.779 C 251.670 85.280,250.905 86.325,250.300 87.100 C 249.695 87.876,249.200 88.652,249.200 88.826 C 249.200 89.000,248.969 89.381,248.687 89.671 C 248.405 89.962,247.770 90.774,247.276 91.476 C 246.783 92.178,246.024 92.865,245.590 93.003 C 245.155 93.141,244.798 93.467,244.795 93.727 C 244.788 94.413,241.856 97.465,240.919 97.762 C 240.480 97.902,239.918 98.462,239.669 99.008 C 239.421 99.553,238.988 100.004,238.709 100.009 C 238.429 100.014,237.581 100.734,236.824 101.609 C 235.508 103.130,234.400 103.668,234.400 102.786 C 234.400 102.512,234.114 102.525,233.557 102.823 C 232.947 103.149,232.593 103.153,232.277 102.837 C 232.037 102.597,231.514 102.400,231.115 102.400 C 229.590 102.400,227.417 100.570,226.960 98.900 C 226.824 98.405,226.553 98.000,226.357 98.000 C 225.810 98.000,225.933 96.889,226.500 96.698 C 226.892 96.566,226.884 96.390,226.463 95.879 C 226.005 95.325,226.050 95.053,226.763 94.052 C 227.223 93.406,227.600 92.720,227.600 92.529 C 227.600 92.338,228.234 91.840,229.009 91.423 C 229.786 91.005,230.524 90.245,230.653 89.732 C 230.781 89.219,231.149 88.800,231.469 88.800 C 232.289 88.800,239.200 81.566,239.200 80.708 C 239.200 80.319,239.470 80.000,239.800 80.000 C 240.130 80.000,240.400 79.741,240.400 79.425 C 240.400 79.108,240.940 78.258,241.600 77.536 C 242.260 76.813,242.800 75.896,242.800 75.498 C 242.800 75.100,243.056 74.677,243.369 74.557 C 244.661 74.061,244.491 72.000,243.157 72.000 C 242.741 72.000,242.400 71.845,242.400 71.655 C 242.400 71.465,241.320 71.080,240.000 70.800 C 238.680 70.520,237.600 70.171,237.600 70.025 C 237.600 69.727,233.423 68.800,232.076 68.800 C 231.594 68.800,231.200 68.651,231.200 68.469 C 231.200 68.103,227.605 67.390,223.600 66.962 C 222.170 66.810,220.910 66.552,220.800 66.389 C 220.097 65.347,193.715 64.845,183.806 65.686 M280.800 151.000 C 281.102 151.770,281.496 152.400,281.675 152.400 C 281.854 152.400,282.000 152.636,282.000 152.925 C 282.000 153.213,282.335 153.808,282.743 154.247 C 283.152 154.686,283.706 155.710,283.974 156.523 C 284.243 157.335,284.614 158.000,284.799 158.000 C 284.985 158.000,285.255 158.542,285.401 159.204 C 285.546 159.866,285.876 160.631,286.133 160.904 C 286.390 161.177,286.953 162.480,287.385 163.800 C 287.816 165.120,288.301 166.294,288.462 166.410 C 288.623 166.525,288.987 167.515,289.271 168.610 C 289.555 169.704,289.902 170.690,290.043 170.800 C 290.184 170.910,290.492 171.810,290.726 172.800 C 290.961 173.790,291.538 175.860,292.008 177.400 C 292.479 178.940,293.014 181.010,293.198 182.000 C 293.383 182.990,293.731 184.520,293.972 185.400 C 295.141 189.657,294.776 216.000,293.548 216.000 C 293.357 216.000,293.200 216.531,293.200 217.180 C 293.200 218.611,292.487 222.297,291.997 223.400 C 291.802 223.840,291.431 225.280,291.174 226.600 C 290.917 227.920,290.584 229.090,290.434 229.200 C 290.103 229.442,288.800 233.467,288.800 234.246 C 288.800 234.551,288.620 234.800,288.400 234.800 C 288.180 234.800,288.000 235.115,288.000 235.500 C 288.000 236.125,285.232 242.205,283.766 244.800 C 283.455 245.350,282.981 246.295,282.713 246.900 C 282.444 247.505,282.084 248.000,281.912 248.000 C 281.741 248.000,281.600 248.168,281.600 248.373 C 281.600 248.918,279.247 252.733,277.718 254.667 C 276.993 255.584,276.400 256.528,276.400 256.764 C 276.400 257.000,276.040 257.418,275.600 257.693 C 275.160 257.968,274.800 258.385,274.800 258.621 C 274.800 258.857,273.540 260.417,272.000 262.089 C 270.460 263.760,269.200 265.233,269.200 265.362 C 269.200 265.745,265.310 269.600,264.923 269.600 C 264.727 269.600,263.764 270.421,262.783 271.423 C 261.802 272.426,260.010 274.001,258.800 274.923 C 257.590 275.846,256.540 276.735,256.467 276.900 C 256.393 277.065,256.135 277.200,255.892 277.200 C 255.650 277.200,255.080 277.546,254.626 277.968 C 253.765 278.769,250.993 280.432,249.100 281.281 C 248.495 281.553,248.000 281.914,248.000 282.082 C 248.000 282.251,247.415 282.658,246.700 282.987 C 245.985 283.315,245.130 283.747,244.800 283.947 C 242.676 285.232,234.630 288.920,232.800 289.448 C 231.590 289.796,230.420 290.215,230.200 290.379 C 229.980 290.542,228.900 290.900,227.800 291.175 C 226.700 291.450,225.440 291.828,225.000 292.016 C 224.560 292.204,223.131 292.568,221.824 292.823 C 220.517 293.079,219.167 293.437,218.824 293.619 C 218.091 294.008,210.837 294.800,208.009 294.800 C 206.930 294.800,205.936 294.980,205.800 295.200 C 205.488 295.705,193.457 295.740,192.495 295.238 C 192.113 295.039,189.565 294.677,186.834 294.432 C 184.103 294.188,181.673 293.840,181.434 293.658 C 181.195 293.476,179.650 293.098,178.000 292.817 C 176.350 292.537,174.820 292.176,174.600 292.016 C 174.380 291.855,173.300 291.488,172.200 291.200 C 171.100 290.912,170.018 290.537,169.795 290.368 C 169.572 290.198,168.492 289.842,167.395 289.576 C 166.298 289.310,164.860 288.780,164.200 288.398 C 163.540 288.015,162.462 287.575,161.804 287.420 C 161.146 287.264,160.516 287.016,160.404 286.868 C 160.292 286.721,158.850 285.918,157.200 285.084 C 155.550 284.250,153.480 283.129,152.600 282.592 C 151.720 282.055,150.505 281.392,149.900 281.120 C 149.295 280.847,148.800 280.397,148.800 280.118 C 148.800 279.457,207.484 220.800,208.145 220.800 C 208.596 220.800,210.400 218.742,210.400 218.227 C 210.400 217.897,277.888 150.504,278.680 150.043 C 279.855 149.360,280.221 149.525,280.800 151.000 " stroke="none" fill="#fc0404" fill-rule="evenodd"></path><path id="path2" d="" stroke="none" fill="#fcc0100" fill-rule="evenodd"></path><path id="path3" d="M239.246 80.638 C 239.221 81.099,238.840 81.802,238.400 82.200 C 237.960 82.598,237.600 83.090,237.600 83.293 C 237.600 83.495,238.064 83.110,238.630 82.437 C 239.204 81.755,239.579 80.899,239.477 80.506 C 239.327 79.930,239.284 79.954,239.246 80.638 M168.825 80.851 C 168.797 81.591,169.886 82.647,170.276 82.257 C 170.418 82.116,170.318 82.000,170.054 82.000 C 169.790 82.000,169.411 81.595,169.212 81.100 C 168.968 80.491,168.843 80.410,168.825 80.851 M170.832 82.682 C 170.814 82.947,171.250 83.828,171.800 84.638 C 172.350 85.449,172.800 85.931,172.800 85.710 C 172.800 85.489,172.467 84.879,172.060 84.354 C 171.653 83.829,171.217 83.130,171.091 82.800 C 170.965 82.468,170.849 82.416,170.832 82.682 M236.323 84.300 C 235.618 85.121,235.090 86.000,235.301 86.000 C 235.383 86.000,235.849 85.460,236.337 84.800 C 237.301 83.496,237.292 83.172,236.323 84.300 M231.181 89.300 C 228.783 91.937,228.905 91.753,229.900 91.238 C 230.395 90.982,230.800 90.605,230.800 90.402 C 230.800 90.198,231.194 89.664,231.675 89.216 C 232.157 88.767,232.427 88.400,232.275 88.400 C 232.124 88.400,231.632 88.805,231.181 89.300 M193.880 92.035 C 194.145 92.302,195.138 92.547,196.087 92.579 C 197.037 92.611,198.080 92.777,198.407 92.948 C 198.733 93.119,198.640 92.968,198.200 92.612 C 197.739 92.239,197.030 92.057,196.528 92.183 C 196.048 92.303,195.148 92.210,194.528 91.975 C 193.644 91.642,193.504 91.655,193.880 92.035 M243.404 95.196 C 242.774 95.854,242.335 96.456,242.429 96.534 C 242.523 96.612,243.113 96.074,243.739 95.338 C 245.154 93.677,244.945 93.588,243.404 95.196 M114.037 99.883 C 114.069 101.665,113.958 103.365,113.789 103.661 C 113.551 104.080,113.596 104.095,113.991 103.730 C 114.485 103.274,114.647 97.314,114.179 96.845 C 114.068 96.735,114.004 98.102,114.037 99.883 M222.195 100.058 C 222.548 100.640,223.189 101.208,223.619 101.321 C 224.049 101.433,224.300 101.362,224.177 101.163 C 224.054 100.963,223.767 100.800,223.541 100.800 C 223.314 100.800,222.774 100.395,222.340 99.900 L 221.553 99.000 222.195 100.058 M230.800 102.293 C 231.350 102.394,232.070 102.684,232.400 102.938 C 232.922 103.340,232.929 103.309,232.451 102.700 C 232.148 102.314,231.430 102.024,230.851 102.054 L 229.800 102.109 230.800 102.293 M235.027 107.555 C 235.452 107.944,237.929 108.596,237.554 108.220 C 237.419 108.086,236.711 107.804,235.981 107.595 C 235.251 107.385,234.822 107.368,235.027 107.555 M116.750 114.501 C 117.088 114.933,117.209 115.657,117.063 116.385 C 116.933 117.036,116.955 117.649,117.113 117.746 C 117.794 118.165,117.594 114.894,116.906 114.354 C 116.265 113.851,116.250 113.864,116.750 114.501 M248.812 116.651 C 248.794 117.311,249.891 118.109,250.487 117.869 C 250.817 117.737,250.758 117.652,250.320 117.632 C 249.946 117.614,249.456 117.285,249.232 116.900 C 249.008 116.515,248.819 116.403,248.812 116.651 M118.989 121.732 C 118.822 122.850,118.309 123.914,117.545 124.732 C 116.893 125.429,116.504 126.000,116.680 126.000 C 117.399 126.000,119.120 123.254,119.386 121.683 C 119.542 120.757,119.576 120.000,119.460 120.000 C 119.344 120.000,119.132 120.779,118.989 121.732 M223.599 148.700 L 195.800 176.600 223.700 148.801 C 239.045 133.512,251.600 120.957,251.600 120.901 C 251.600 120.621,249.441 122.764,223.599 148.700 M112.390 131.826 C 112.176 132.390,112.000 132.947,112.000 133.063 C 112.000 133.179,111.640 133.731,111.200 134.291 C 110.760 134.850,110.415 135.689,110.434 136.154 C 110.461 136.820,110.542 136.757,110.811 135.857 C 111.000 135.228,111.413 134.418,111.730 134.057 C 112.046 133.696,112.441 132.950,112.607 132.400 C 112.772 131.850,113.109 131.268,113.354 131.106 C 113.665 130.901,113.646 130.810,113.290 130.806 C 113.010 130.803,112.605 131.262,112.390 131.826 M318.867 137.220 C 319.101 137.892,319.367 138.367,319.457 138.276 C 319.656 138.078,318.901 136.000,318.631 136.000 C 318.527 136.000,318.633 136.549,318.867 137.220 M320.324 139.800 C 320.526 140.240,320.792 140.870,320.914 141.200 C 321.107 141.718,321.141 141.715,321.168 141.176 C 321.186 140.834,320.920 140.204,320.578 139.776 C 319.966 139.012,319.962 139.013,320.324 139.800 M102.226 158.202 C 102.081 158.974,102.106 159.860,102.281 160.172 C 102.478 160.522,102.623 159.983,102.660 158.770 C 102.732 156.448,102.590 156.263,102.226 158.202 M100.954 164.577 C 100.832 164.894,100.803 165.479,100.889 165.877 C 100.987 166.328,101.124 166.112,101.254 165.300 C 101.471 163.938,101.330 163.596,100.954 164.577 M95.697 166.400 C 96.033 166.965,96.707 167.432,97.246 167.474 C 97.995 167.532,98.028 167.503,97.400 167.338 C 96.960 167.223,96.263 166.739,95.851 166.264 L 95.102 165.400 95.697 166.400 M100.771 167.300 C 100.464 172.665,100.412 174.522,100.574 174.359 C 100.832 174.102,101.231 166.800,100.987 166.800 C 100.884 166.800,100.787 167.025,100.771 167.300 M79.302 167.877 C 78.672 168.386,78.695 168.398,79.531 167.991 C 80.043 167.742,80.718 167.637,81.031 167.756 C 81.343 167.876,82.004 167.825,82.499 167.642 C 83.218 167.376,83.058 167.309,81.701 167.309 C 80.767 167.309,79.688 167.564,79.302 167.877 M67.690 180.854 C 67.311 180.994,69.661 181.062,72.914 181.006 C 76.167 180.951,78.918 180.816,79.027 180.706 C 79.320 180.414,68.503 180.555,67.690 180.854 M293.885 188.000 C 294.118 191.907,294.336 192.481,294.340 189.200 C 294.342 187.770,294.200 186.240,294.024 185.800 C 293.843 185.346,293.783 186.299,293.885 188.000 M153.038 219.162 C 122.342 249.860,121.025 251.120,119.727 251.017 C 118.984 250.958,118.484 251.017,118.616 251.149 C 120.033 252.566,120.063 252.538,153.249 219.351 C 170.931 201.668,185.308 187.200,185.198 187.200 C 185.088 187.200,170.616 201.583,153.038 219.162 M100.174 193.914 C 100.334 194.197,100.459 195.522,100.453 196.860 C 100.447 198.198,100.535 199.198,100.649 199.084 C 101.075 198.658,100.842 194.283,100.370 193.849 C 100.004 193.512,99.955 193.528,100.174 193.914 M102.296 209.046 C 102.412 210.121,102.572 211.075,102.653 211.167 C 102.972 211.529,102.765 208.165,102.437 207.646 C 102.222 207.307,102.168 207.851,102.296 209.046 M294.349 207.700 C 294.167 208.058,293.433 215.901,293.596 215.742 C 293.814 215.530,294.708 207.600,294.515 207.600 C 294.452 207.600,294.377 207.645,294.349 207.700 M103.470 214.405 C 103.729 214.738,104.014 215.728,104.103 216.605 L 104.266 218.200 104.333 216.549 C 104.380 215.393,104.190 214.733,103.700 214.349 C 103.089 213.870,103.060 213.877,103.470 214.405 M292.663 219.100 C 292.561 219.265,292.378 220.300,292.255 221.400 C 292.032 223.411,292.194 223.078,292.792 220.300 C 293.102 218.862,293.058 218.458,292.663 219.100 M290.566 227.394 C 290.342 228.360,290.296 229.064,290.464 228.961 C 290.810 228.747,291.382 226.049,291.134 225.801 C 291.045 225.712,290.790 226.429,290.566 227.394 M107.356 227.034 C 107.172 227.767,107.308 228.261,107.826 228.734 C 108.511 229.358,108.524 229.357,108.033 228.705 C 107.728 228.300,107.616 227.592,107.763 227.005 C 107.902 226.452,107.925 226.000,107.815 226.000 C 107.705 226.000,107.498 226.465,107.356 227.034 M109.050 231.832 C 109.190 232.914,109.435 233.946,109.596 234.124 C 109.757 234.302,109.741 233.515,109.560 232.374 C 109.137 229.696,108.718 229.251,109.050 231.832 M110.400 235.890 C 110.400 236.111,110.760 236.750,111.200 237.309 C 111.640 237.869,112.000 238.488,112.000 238.687 C 112.000 238.885,112.273 239.396,112.607 239.824 C 113.162 240.535,113.171 240.500,112.710 239.400 C 112.084 237.905,110.400 235.347,110.400 235.890 M94.000 239.532 C 94.000 239.788,93.415 240.266,92.700 240.595 C 91.763 241.025,91.679 241.125,92.400 240.953 C 93.580 240.671,94.669 239.736,94.276 239.343 C 94.124 239.191,94.000 239.276,94.000 239.532 M327.823 241.300 C 327.739 241.575,327.470 242.426,327.224 243.191 C 326.979 243.956,326.946 244.406,327.152 244.191 C 327.566 243.758,328.441 240.800,328.155 240.800 C 328.056 240.800,327.906 241.025,327.823 241.300 M284.267 242.667 C 284.120 242.813,284.000 243.228,284.000 243.589 C 284.000 243.950,283.550 244.855,283.000 245.600 C 282.450 246.345,282.000 247.126,282.000 247.334 C 282.000 247.973,284.093 244.669,284.428 243.500 C 284.754 242.365,284.724 242.209,284.267 242.667 M106.323 245.900 C 105.618 246.721,105.090 247.600,105.301 247.600 C 105.383 247.600,105.849 247.060,106.337 246.400 C 107.301 245.096,107.292 244.772,106.323 245.900 M84.081 247.842 C 83.883 248.195,82.839 249.399,81.761 250.519 C 80.682 251.638,80.290 252.183,80.889 251.728 C 81.903 250.959,84.800 247.725,84.800 247.362 C 84.800 246.988,84.415 247.245,84.081 247.842 M117.124 248.200 C 117.326 248.640,117.592 249.270,117.714 249.600 C 117.907 250.118,117.941 250.115,117.968 249.576 C 117.986 249.234,117.720 248.604,117.378 248.176 C 116.766 247.412,116.762 247.413,117.124 248.200 M97.503 252.900 C 96.985 253.395,96.840 253.600,97.180 253.356 C 97.521 253.112,98.160 252.712,98.600 252.468 C 99.040 252.224,99.185 252.019,98.922 252.012 C 98.660 252.005,98.021 252.405,97.503 252.900 M93.392 256.924 C 91.322 259.111,90.934 259.901,92.917 257.893 C 94.532 256.257,95.108 255.525,94.700 255.624 C 94.645 255.638,94.057 256.223,93.392 256.924 M270.661 263.170 C 269.417 264.474,268.400 265.674,268.400 265.837 C 268.400 266.000,268.454 266.058,268.520 265.967 C 268.587 265.875,269.694 264.675,270.981 263.300 C 272.269 261.925,273.232 260.800,273.122 260.800 C 273.012 260.800,271.904 261.867,270.661 263.170 M261.400 272.294 C 259.860 273.757,259.140 274.574,259.800 274.110 C 260.970 273.286,264.748 269.583,264.383 269.617 C 264.282 269.627,262.940 270.831,261.400 272.294 M149.280 279.280 C 148.543 280.017,148.690 280.326,150.100 281.009 C 151.198 281.541,151.282 281.545,150.643 281.034 C 150.227 280.701,149.687 280.362,149.443 280.279 C 149.141 280.178,149.174 279.919,149.549 279.465 C 150.182 278.699,149.992 278.568,149.280 279.280 M154.000 283.400 C 154.745 283.950,155.526 284.400,155.734 284.400 C 155.941 284.400,155.449 283.950,154.638 283.400 C 153.828 282.850,153.047 282.400,152.905 282.400 C 152.762 282.400,153.255 282.850,154.000 283.400 M244.980 283.561 C 244.771 283.760,244.240 284.009,243.800 284.115 C 243.041 284.297,243.044 284.310,243.851 284.354 C 244.319 284.379,244.926 284.130,245.200 283.800 C 245.743 283.146,245.591 282.981,244.980 283.561 M170.800 290.800 C 172.168 291.238,173.219 291.238,172.200 290.800 C 171.760 290.611,171.040 290.462,170.600 290.468 C 169.957 290.477,169.996 290.543,170.800 290.800 M227.800 290.800 C 226.781 291.238,227.832 291.238,229.200 290.800 C 230.004 290.543,230.043 290.477,229.400 290.468 C 228.960 290.462,228.240 290.611,227.800 290.800 M174.672 291.997 C 174.852 292.159,175.958 292.472,177.128 292.693 C 178.298 292.915,179.108 292.964,178.928 292.803 C 178.748 292.641,177.642 292.328,176.472 292.107 C 175.302 291.885,174.492 291.836,174.672 291.997 M222.000 292.288 C 221.450 292.387,220.843 292.618,220.652 292.802 C 220.346 293.095,221.391 292.942,224.200 292.281 C 225.273 292.029,223.414 292.035,222.000 292.288 M215.200 293.828 L 211.400 294.343 215.000 294.136 C 216.980 294.021,218.771 293.764,218.980 293.564 C 219.189 293.364,219.279 293.225,219.180 293.256 C 219.081 293.287,217.290 293.544,215.200 293.828 M183.200 294.020 C 184.190 294.197,185.630 294.330,186.400 294.317 C 187.545 294.297,187.435 294.236,185.800 293.982 C 183.053 293.554,180.769 293.588,183.200 294.020 M159.800 329.036 C 160.240 329.152,161.136 329.421,161.791 329.634 C 162.632 329.908,162.857 329.897,162.556 329.596 C 162.322 329.362,161.426 329.093,160.565 328.998 C 159.704 328.903,159.360 328.920,159.800 329.036 M164.800 330.527 C 164.910 330.638,165.959 330.903,167.131 331.116 C 168.303 331.328,169.113 331.365,168.931 331.198 C 168.568 330.864,164.476 330.200,164.800 330.527 M171.051 331.978 C 171.457 332.345,174.260 332.926,173.903 332.569 C 173.771 332.438,172.997 332.180,172.183 331.996 C 171.368 331.812,170.859 331.804,171.051 331.978 " stroke="none" fill="#fc4084" fill-rule="evenodd"></path><path id="path4" d="M226.951 102.452 C 227.000 102.711,227.446 103.073,227.941 103.256 C 228.512 103.468,228.751 103.445,228.597 103.195 C 228.463 102.978,228.108 102.800,227.810 102.800 C 227.511 102.800,227.175 102.615,227.063 102.390 C 226.952 102.165,226.901 102.192,226.951 102.452 M102.954 154.977 C 102.832 155.294,102.803 155.879,102.889 156.277 C 102.987 156.728,103.124 156.512,103.254 155.700 C 103.471 154.338,103.330 153.996,102.954 154.977 M98.554 172.977 C 98.432 173.294,98.403 173.879,98.489 174.277 C 98.587 174.728,98.724 174.512,98.854 173.700 C 99.071 172.338,98.930 171.996,98.554 172.977 M102.901 212.600 C 102.905 213.480,102.987 213.793,103.083 213.295 C 103.179 212.798,103.175 212.078,103.075 211.695 C 102.975 211.313,102.896 211.720,102.901 212.600 M195.900 295.498 C 197.715 295.572,200.685 295.572,202.500 295.498 C 204.315 295.423,202.830 295.363,199.200 295.363 C 195.570 295.363,194.085 295.423,195.900 295.498 " stroke="none" fill="#fc4404" fill-rule="evenodd"></path></g></svg>